<?xml version="1.0" standalone="no"?>
<!DOCTYPE svg PUBLIC "-//W3C//DTD SVG 20010904//EN"
 "http://www.w3.org/TR/2001/REC-SVG-20010904/DTD/svg10.dtd">
<svg version="1.0" xmlns="http://www.w3.org/2000/svg"
 width="300.000000pt" height="74.000000pt" viewBox="0 0 300.000000 74.000000"
 preserveAspectRatio="xMidYMid meet">
<metadata>
Created by potrace 1.10, written by Peter Selinger 2001-2011
</metadata>
<g transform="translate(0.000000,74.000000) scale(0.100000,-0.100000)"
fill="#000000" stroke="none">
<path d="M1369 703 c-58 -63 -123 -195 -174 -353 -11 -34 -44 -90 -87 -147
-103 -135 -125 -134 -64 4 39 87 36 103 -20 103 -33 0 -47 21 -24 35 15 9 12
35 -5 42 -25 9 -56 -26 -53 -61 1 -22 -10 -47 -36 -86 -51 -73 -78 -102 -87
-93 -9 9 12 110 32 160 12 29 11 35 -4 50 -16 16 -18 16 -41 -6 l-24 -22 -10
29 c-22 64 -79 47 -136 -39 -75 -111 -167 -206 -187 -193 -34 21 34 284 73
284 10 0 7 -35 -7 -72 -5 -14 -2 -18 13 -18 22 0 32 18 32 56 0 64 -50 85 -96
39 -35 -35 -82 -143 -90 -206 -9 -76 13 -129 54 -129 35 0 102 50 140 104 l27
39 6 -34 c7 -47 16 -59 43 -59 25 0 61 35 100 97 31 51 38 54 25 11 -15 -55
-11 -106 11 -128 11 -11 25 -20 32 -20 19 0 82 73 113 133 25 48 34 57 58 57
15 0 27 -2 27 -4 0 -2 -13 -33 -30 -68 -35 -74 -37 -97 -10 -129 l19 -24 38
21 c21 12 58 48 83 80 54 70 64 77 67 44 2 -22 2 -23 -6 -5 -7 16 -10 11 -16
-28 -9 -57 -2 -122 15 -142 24 -28 75 -18 114 22 41 42 126 164 126 182 0 6 5
11 10 11 12 0 3 -49 -11 -64 -15 -17 -10 -36 17 -61 48 -45 84 -29 163 73 22
30 41 50 41 45 0 -4 -7 -40 -16 -79 -20 -82 -14 -120 21 -136 22 -10 29 -8 56
18 37 35 189 239 189 253 0 25 -21 4 -106 -104 -125 -161 -140 -154 -78 35 19
61 32 115 28 122 -4 6 -3 8 3 5 5 -3 20 20 33 51 27 68 33 76 63 77 75 4 87 6
87 15 0 6 -27 10 -60 10 -36 0 -60 4 -60 11 0 5 4 8 10 4 5 -3 17 9 26 27 9
18 30 52 46 75 31 43 30 63 -2 63 -44 0 -46 -2 -121 -138 l-25 -47 -65 -3
c-35 -1 -75 -5 -89 -8 l-25 -7 30 -8 c17 -5 56 -6 89 -3 58 7 58 7 46 -16 -6
-12 -20 -46 -30 -76 -32 -93 -187 -271 -213 -245 -5 5 -6 32 -2 60 6 45 11 54
38 67 70 35 116 99 97 134 -14 25 -55 36 -86 22 -26 -13 -51 -46 -125 -171
-122 -205 -188 -247 -173 -111 9 84 34 161 64 200 59 77 135 198 157 250 28
67 29 111 5 133 -26 24 -45 21 -73 -10z m57 -40 c-8 -35 -110 -239 -136 -273
-20 -25 -20 -25 -1 30 34 101 82 213 102 242 26 36 43 36 35 1z m144 -294 c0
-21 -65 -98 -75 -88 -13 14 50 123 66 114 5 -4 9 -15 9 -26z m-816 -34 c6 -30
1 -43 -36 -95 -50 -72 -70 -79 -57 -19 9 40 41 111 61 137 17 20 25 14 32 -23z"/>
<path d="M2803 699 c-12 -4 -33 -25 -47 -46 -34 -51 -93 -200 -117 -292 -17
-66 -25 -80 -67 -118 -38 -34 -72 -54 -72 -40 1 25 36 106 55 129 29 34 29 65
2 82 -16 9 -25 4 -62 -39 -25 -27 -52 -65 -62 -82 -18 -33 -40 -46 -29 -17 3
9 6 24 6 33 0 10 12 35 26 56 28 42 25 68 -8 63 -16 -2 -26 -17 -41 -58 -38
-110 -40 -170 -3 -170 7 0 32 29 54 64 51 78 84 109 53 50 -28 -53 -31 -122
-6 -140 36 -26 61 -17 100 36 l25 33 -3 -54 c-2 -51 -1 -54 23 -54 19 0 30 10
49 43 l24 44 21 -38 c33 -58 48 -63 102 -35 68 37 173 161 136 161 -5 0 -20
-16 -33 -35 -26 -36 -110 -105 -129 -105 -11 0 -50 58 -50 77 0 6 21 21 47 34
63 30 123 86 123 113 0 29 -18 46 -49 46 -33 0 -139 -108 -169 -172 -18 -39
-42 -70 -42 -55 0 28 48 127 83 173 64 84 147 224 147 248 -1 43 -50 79 -87
65z m57 -49 c0 -12 -12 -43 -26 -71 -50 -99 -146 -237 -119 -171 7 17 11 40
14 75 1 11 6 15 13 11 8 -5 9 -2 5 9 -3 10 -2 17 2 17 5 0 14 14 20 32 30 86
91 152 91 98z m20 -240 c0 -14 -88 -108 -112 -121 -32 -17 -19 6 38 69 54 60
74 74 74 52z"/>
<path d="M297 676 c-53 -19 -102 -59 -121 -99 -27 -57 -20 -108 29 -227 49
-119 53 -145 30 -191 -30 -56 -116 -89 -145 -54 -16 19 -7 97 15 128 39 56 0
64 -45 10 -23 -28 -29 -44 -25 -63 4 -19 3 -21 -5 -10 -7 11 -10 6 -10 -22 0
-50 8 -66 41 -83 69 -36 171 -8 225 63 43 57 46 107 8 178 -30 56 -64 158 -64
192 0 76 132 179 175 136 8 -9 15 -18 15 -20 0 -11 -34 -71 -58 -102 -14 -18
-22 -35 -19 -38 15 -15 84 52 116 114 31 59 -78 118 -162 88z"/>
<path d="M2334 633 c-6 -10 -34 -22 -65 -28 -37 -7 -54 -15 -54 -25 0 -11 11
-15 45 -14 l45 2 -34 -72 c-57 -119 -131 -315 -131 -345 0 -26 -3 -29 -45 -34
-53 -5 -60 -10 -51 -33 7 -18 9 -18 161 16 124 27 146 44 52 38 -58 -3 -67 -2
-61 12 3 8 19 53 36 100 17 46 57 141 90 211 l60 126 54 12 c73 17 83 35 15
29 -34 -3 -57 -1 -69 8 -23 18 -35 17 -48 -3z"/>
</g>
</svg>
